# xmcd
#
# Track frame offsets: 
#        202
#        14980
#        43830
#        60395
#        79127
#        95092
#        107882
#        125960
#        154142
#        175042
#
# Disc length: 2580 seconds
#
# Revision: 0
# Processed by: cddbd v1.5.1PL0 Copyright (c) Steve Scherf et al.
# Submitted via: ExactAudioCopy v0.95a3
#
DISCID=8c0a120a
DTITLE=Various Artist - Ichiban Blues at Christmas Volume 2
DYEAR=1992
DGENRE=Christmas
TTITLE0=Kip Anderson - Silver Bells
TTITLE1=William Bell - Every Day Will Be Like a Holiday
TTITLE2=Chick Willis - May Christmas Bring You Happiness
TTITLE3=Theodis Ealey - A Christmas Wish 
TTITLE4=Drink Small - Christmas Once a Year
TTITLE5=B B Coleman and Blues Boy Willie - All I Need for Christmas is Y
TTITLE5=ou
TTITLE6=Legendary Blues Band - One Day Before Christmas
TTITLE7=Jerry McCain featuring B B Coleman - Sad, Sad Christmas
TTITLE8=Chick Willis - Santa Claus Got the Blues
TTITLE9=William Bell - Merry Christmas Baby
EXTD=
EXTT0=
EXTT1=
EXTT2=
EXTT3=
EXTT4=
EXTT5=
EXTT6=
EXTT7=
EXTT8=
EXTT9=
PLAYORDER=
